HIERARCHY
ROOT Hips
{
 OFFSET 0.000000 0.000000 0.000000
 CHANNELS 6 Xposition Yposition Zposition Yrotation Xrotation Zrotation
 JOINT Chest
 {
  OFFSET 0.000000 9.585900 0.002600
  CHANNELS 3 Yrotation Xrotation Zrotation
  JOINT Chest2
  {
   OFFSET 0.000000 9.601200 -0.005300
   CHANNELS 3 Yrotation Xrotation Zrotation
   JOINT Chest3
   {
    OFFSET 0.000000 9.561800 0.000000
    CHANNELS 3 Yrotation Xrotation Zrotation
    JOINT Chest4
    {
     OFFSET 0.000000 9.552100 0.000000
     CHANNELS 3 Yrotation Xrotation Zrotation
     JOINT Neck
     {
      OFFSET 0.000000 14.453000 0.000000
      CHANNELS 3 Yrotation Xrotation Zrotation
      JOINT Head
      {
       OFFSET 0.000000 8.936500 -0.011300
       CHANNELS 3 Yrotation Xrotation Zrotation
       End Site
       {
        OFFSET 0.000000 17.073600 -0.006000
       }
      }
     }
     JOINT RightCollar
     {
      OFFSET -2.921100 9.558500 0.000000
      CHANNELS 3 Yrotation Xrotation Zrotation
      JOINT RightShoulder
      {
       OFFSET -13.519700 0.000000 0.000000
       CHANNELS 3 Yrotation Xrotation Zrotation
       JOINT RightElbow
       {
        OFFSET 0.000000 -29.696600 0.000000
        CHANNELS 3 Yrotation Xrotation Zrotation
        JOINT RightWrist
        {
         OFFSET 0.000000 -24.004700 0.000000
         CHANNELS 3 Yrotation Xrotation Zrotation
         End Site
         {
          OFFSET 0.000000 -17.728500 0.000000
         }
        }
       }
      }
     }
     JOINT LeftCollar
     {
      OFFSET 2.921100 9.558500 0.000000
      CHANNELS 3 Yrotation Xrotation Zrotation
      JOINT LeftShoulder
      {
       OFFSET 13.519700 0.000000 0.000000
       CHANNELS 3 Yrotation Xrotation Zrotation
       JOINT LeftElbow
       {
        OFFSET 0.000000 -29.696600 0.000000
        CHANNELS 3 Yrotation Xrotation Zrotation
        JOINT LeftWrist
        {
         OFFSET 0.000000 -24.004700 0.000000
         CHANNELS 3 Yrotation Xrotation Zrotation
         End Site
         {
          OFFSET 0.000000 -17.728500 0.000000
         }
        }
       }
      }
     }
    }
   }
  }
 }
 JOINT RightHip
 {
  OFFSET -7.771700 -0.012900 -0.001300
  CHANNELS 3 Yrotation Xrotation Zrotation
  JOINT RightKnee
  {
   OFFSET 0.000000 -40.869800 0.001200
   CHANNELS 3 Yrotation Xrotation Zrotation
   JOINT RightAnkle
   {
    OFFSET 0.000000 -39.717900 0.002100
    CHANNELS 3 Yrotation Xrotation Zrotation
    JOINT RightToe
    {
     OFFSET 0.000000 -4.965400 11.033500
     CHANNELS 3 Yrotation Xrotation Zrotation
     End Site
     {
      OFFSET 0.000000 -1.423100 5.872300
     }
    }
   }
  }
 }
 JOINT LeftHip
 {
  OFFSET 7.771700 -0.012900 -0.001300
  CHANNELS 3 Yrotation Xrotation Zrotation
  JOINT LeftKnee
  {
   OFFSET 0.000000 -40.869800 0.001200
   CHANNELS 3 Yrotation Xrotation Zrotation
   JOINT LeftAnkle
   {
    OFFSET 0.000000 -39.717900 0.002100
    CHANNELS 3 Yrotation Xrotation Zrotation
    JOINT LeftToe
    {
     OFFSET 0.000000 -4.965400 11.033500
     CHANNELS 3 Yrotation Xrotation Zrotation
     End Site
     {
      OFFSET 0.000000 -1.423100 5.872300
     }
    }
   }
  }
 }
}
MOTION
Frames: 13
Frame Time: 0.008333
-70.223830 63.304336 12.549956 160.875142 -53.640110 -3.704257 8.547301 25.205099 5.725309 1.364149 4.357207 0.494570 2.190268 6.922591 0.838854 7.144799 20.709511 3.451237 -1.643906 15.400668 -0.007805 -3.050567 -7.150685 0.589703 8.002126 7.340015 7.875283 3.502951 -26.278482 -16.974192 -51.561193 -30.232246 99.374189 0.095213 4.935014 22.899635 -11.797701 4.537504 -2.029647 -11.817873 -22.435931 21.580527 61.853167 -46.665818 -110.403301 14.476816 4.791824 -23.249980 -2.908527 -6.073564 13.616003 -27.580975 72.709738 -24.877500 1.347894 -13.273503 -2.956895 -0.440098 1.033186 -0.189688 -3.474380 -13.718717 2.882934 16.859481 62.847418 11.812554 -0.152497 -6.595339 0.203146 -0.357775 -1.068203 -0.190186
-70.227418 63.308630 12.559313 160.887589 -53.705992 -3.718221 8.526104 25.186779 5.719385 1.362958 4.362653 0.494602 2.183296 6.911955 0.834371 7.168456 20.780693 3.472855 -1.773611 15.416424 -0.048862 -3.233178 -7.042287 0.562559 8.029040 7.343406 7.893519 3.433240 -26.446237 -16.962366 -50.959015 -29.777943 98.256262 -0.026497 5.036177 22.446754 -11.791873 4.583854 -2.019227 -11.538049 -22.531675 21.353431 60.648962 -46.152610 -108.817677 14.767345 4.732445 -22.814307 -2.904745 -5.998539 13.621624 -27.579370 72.681135 -24.879290 1.351898 -13.277710 -2.949307 -0.441377 1.044571 -0.193169 -3.478954 -13.645377 2.870997 16.860562 62.820788 11.827776 -0.153267 -6.584760 0.213314 -0.350470 -1.059383 -0.206685
-70.228843 63.324762 12.561010 160.898093 -53.857524 -3.726228 8.516471 25.255835 5.725034 1.361891 4.369857 0.495071 2.181471 6.922753 0.835141 7.154709 20.785819 3.465285 -1.873666 15.477567 -0.083444 -3.410997 -6.948727 0.523897 8.085484 7.390203 7.933008 3.385878 -26.559920 -16.973815 -50.419362 -29.335697 97.174899 -0.156473 5.116058 22.012800 -11.758733 4.665457 -2.011930 -11.255880 -22.621597 21.130366 59.450389 -45.598167 -107.219427 15.074336 4.601955 -22.344803 -2.891235 -5.832833 13.619584 -27.548201 72.654453 -24.856208 1.348085 -13.248775 -2.935578 -0.445019 1.022742 -0.196646 -3.473191 -13.477019 2.851069 16.859369 62.790575 11.840928 -0.159617 -6.552257 0.202792 -0.340713 -1.076957 -0.188242
-70.228672 63.338033 12.566495 160.869681 -53.985940 -3.717756 8.539059 25.319888 5.747514 1.358606 4.358874 0.494973 2.180632 6.935846 0.836473 7.112844 20.760668 3.449245 -1.947365 15.565309 -0.124577 -3.585813 -6.869650 0.476230 8.211699 7.468652 8.006282 3.328645 -26.664747 -17.035463 -49.914563 -28.885628 96.106313 -0.283164 5.143648 21.595804 -11.705333 4.757798 -2.018618 -10.973964 -22.699343 20.918964 58.288742 -45.017857 -105.636979 15.401505 4.407159 -21.812805 -2.858164 -5.693573 13.634345 -27.525712 72.615365 -24.841866 1.360426 -13.218612 -2.920706 -0.458015 1.011899 -0.202920 -3.456419 -13.326497 2.845148 16.874682 62.754588 11.860457 -0.141715 -6.549442 0.204134 -0.357285 -1.069251 -0.195906
-70.232495 63.350390 12.571681 160.855022 -54.105216 -3.696130 8.552786 25.418763 5.751218 1.349687 4.309732 0.492509 2.181085 6.950114 0.838442 7.107542 20.780004 3.452269 -2.050737 15.601304 -0.174012 -3.759878 -6.801942 0.420538 8.271624 7.512126 8.036342 3.305508 -26.763611 -17.085194 -49.446613 -28.432049 95.052139 -0.398193 5.122108 21.192559 -11.674787 4.814605 -2.013388 -10.709132 -22.791265 20.718224 57.226316 -44.416309 -104.091177 15.765162 4.196057 -21.212586 -2.830404 -5.565727 13.622295 -27.517850 72.594520 -24.830327 1.348433 -13.217314 -2.924296 -0.446234 1.013548 -0.194486 -3.440036 -13.189138 2.816747 16.883477 62.721056 11.874365 -0.140599 -6.541590 0.208158 -0.358230 -1.065458 -0.202746
-70.233992 63.359929 12.580731 160.863568 -54.198573 -3.713720 8.544349 25.432106 5.767193 1.350004 4.322748 0.493382 2.183908 6.975893 0.840855 7.105988 20.793924 3.456695 -2.155486 15.625252 -0.226047 -3.934057 -6.743202 0.356729 8.324970 7.553056 8.058557 3.280920 -26.857055 -17.133813 -49.018108 -27.976843 94.020895 -0.519706 5.084342 20.790124 -11.643298 4.882570 -1.999637 -10.456110 -22.898993 20.529359 56.284189 -43.788264 -102.590207 16.161662 3.999133 -20.552934 -2.818365 -5.461108 13.635122 -27.498025 72.560139 -24.811762 1.348742 -13.201928 -2.914958 -0.448758 1.017849 -0.195845 -3.441136 -13.082894 2.812459 16.869501 62.690151 11.875903 -0.138842 -6.523837 0.211842 -0.348813 -1.066396 -0.208187
-70.236346 63.369488 12.589880 160.865053 -54.289062 -3.721342 8.521307 25.393298 5.768748 1.361853 4.389489 0.500763 2.185323 6.989377 0.844230 7.104288 20.811102 3.464312 -2.259289 15.652226 -0.284656 -4.105689 -6.692566 0.284352 8.379109 7.601718 8.075702 3.247383 -26.911898 -17.165427 -48.648484 -27.535443 93.046925 -0.672843 5.028538 20.358563 -11.629181 4.937141 -2.007101 -10.178920 -22.980195 20.357346 55.431206 -43.135390 -101.156294 16.568228 3.792342 -19.819283 -2.802718 -5.360321 13.645399 -27.479312 72.524845 -24.798537 1.350400 -13.187106 -2.903901 -0.453117 1.018548 -0.197558 -3.437678 -12.980059 2.805063 16.839531 62.660629 11.859285 -0.123838 -6.501537 0.206775 -0.344080 -1.075818 -0.191794
-70.237541 63.379167 12.599793 160.839222 -54.377363 -3.715822 8.532882 25.388718 5.793813 1.364210 4.415207 0.503099 2.184282 6.990237 0.847947 7.099306 20.831918 3.473096 -2.360823 15.683239 -0.349713 -4.272358 -6.648190 0.203075 8.438905 7.654290 8.092690 3.173375 -27.009378 -17.216506 -48.278003 -27.020303 92.109261 -0.853620 4.940882 19.893193 -11.614351 5.007605 -2.019880 -9.871974 -23.063829 20.183536 54.646308 -42.466552 -99.802360 16.988494 3.554413 -19.019132 -2.774819 -5.260812 13.667841 -27.468167 72.473798 -24.803929 1.373294 -13.164132 -2.881032 -0.477593 1.015603 -0.208344 -3.423188 -12.873065 2.800528 16.820418 62.622441 11.852374 -0.088932 -6.493396 0.207338 -0.360854 -1.068490 -0.193617
-70.243429 63.387924 12.608561 160.841881 -54.455254 -3.705934 8.517610 25.394288 5.790199 1.364133 4.422832 0.505265 2.184101 7.001525 0.851361 7.093972 20.846950 3.480905 -2.460309 15.703905 -0.416963 -4.432953 -6.609670 0.113069 8.498426 7.694707 8.110652 3.069553 -27.098487 -17.267269 -47.932492 -26.488445 91.220785 -1.053788 4.824530 19.406961 -11.599457 5.079231 -2.030567 -9.534157 -23.148065 20.005871 53.920985 -41.788411 -98.507524 17.450280 3.272785 -18.209206 -2.766418 -5.176764 13.655583 -27.452626 72.446982 -24.793434 1.367520 -13.145026 -2.876193 -0.472523 1.007556 -0.206631 -3.416972 -12.777962 2.766262 16.809263 62.573398 11.858004 -0.080075 -6.469775 0.207114 -0.357506 -1.065620 -0.196996
-70.247570 63.398125 12.617015 160.830821 -54.539956 -3.695405 8.525175 25.441046 5.800476 1.360458 4.393620 0.509204 2.184338 7.011655 0.855287 7.090719 20.859909 3.490625 -2.556747 15.720485 -0.487583 -4.586785 -6.578932 0.015809 8.550222 7.733152 8.125768 2.976915 -27.160505 -17.312340 -47.652073 -25.963563 90.374887 -1.289460 4.675259 18.894998 -11.586157 5.152546 -2.044260 -9.179603 -23.227525 19.830252 53.241748 -41.085587 -97.253136 17.951255 2.921337 -17.439736 -2.750878 -5.085582 13.653513 -27.437221 72.418906 -24.784057 1.368992 -13.121958 -2.869508 -0.473996 0.996737 -0.207495 -3.402313 -12.677423 2.743107 16.820400 62.532927 11.883321 -0.073351 -6.452778 0.210604 -0.362577 -1.063404 -0.208556
-70.250821 63.410623 12.623975 160.866383 -54.635853 -3.725889 8.507523 25.500888 5.814448 1.360229 4.365849 0.514332 2.185266 7.020618 0.859632 7.090235 20.870701 3.502047 -2.650269 15.732294 -0.560351 -4.734453 -6.557304 -0.086423 8.571435 7.776352 8.128706 2.902992 -27.215967 -17.352137 -47.431705 -25.434151 89.579093 -1.579785 4.488824 18.331699 -11.577447 5.225473 -2.060757 -8.825912 -23.298169 19.659580 52.617954 -40.339776 -96.047651 18.481910 2.500718 -16.730254 -2.752333 -4.965242 13.665480 -27.437507 72.368149 -24.790731 1.354092 -13.127332 -2.861482 -0.458513 1.014088 -0.200826 -3.414301 -12.563194 2.722640 16.829540 62.488116 11.910788 -0.077253 -6.433303 0.208967 -0.360331 -1.062525 -0.210282
-70.255305 63.422542 12.630587 160.853981 -54.726007 -3.709999 8.502083 25.471424 5.821816 1.363640 4.424410 0.513155 2.186859 7.054997 0.861092 7.092778 20.853490 3.514468 -2.740255 15.738798 -0.634038 -4.875184 -6.545688 -0.191431 8.585540 7.819111 8.130901 2.817689 -27.263343 -17.387430 -47.252609 -24.905805 88.840056 -1.929364 4.269274 17.687780 -11.573168 5.295083 -2.076559 -8.480401 -23.352846 19.490518 52.074204 -39.548859 -94.914261 19.047459 2.040269 -16.082431 -2.734215 -4.865704 13.660329 -27.425281 72.342468 -24.786284 1.352325 -13.117406 -2.853165 -0.456808 1.009887 -0.200899 -3.399290 -12.458035 2.697738 16.839118 62.455283 11.930275 -0.071057 -6.418240 0.206098 -0.368286 -1.072423 -0.196885
-70.261727 63.434668 12.635782 160.820602 -54.815788 -3.662941 8.512351 25.496840 5.812074 1.367217 4.431344 0.516065 2.184137 7.086347 0.862747 7.100258 20.838861 3.524457 -2.826036 15.740073 -0.706874 -5.008537 -6.543865 -0.296132 8.600927 7.858308 8.138936 2.712671 -27.302091 -17.417395 -47.105643 -24.363904 88.150034 -2.337876 4.022725 16.954186 -11.575435 5.353641 -2.088615 -8.122404 -23.383401 19.317390 51.624963 -38.707092 -93.890054 19.640714 1.575521 -15.472437 -2.705382 -4.772993 13.636712 -27.410588 72.331103 -24.775405 1.344073 -13.108903 -2.852312 -0.449024 1.003596 -0.196357 -3.376091 -12.346380 2.654002 16.862413 62.411392 11.959106 -0.065704 -6.417225 0.205856 -0.371942 -1.064062 -0.198401
